<?xml version="1.0" encoding="utf-8"?>
<!-- Generator: Adobe Illustrator 26.0.3, SVG Export Plug-In . SVG Version: 6.00 Build 0)  -->
<svg version="1.1" id="Layer_1" xmlns="http://www.w3.org/2000/svg" xmlns:xlink="http://www.w3.org/1999/xlink" x="0px" y="0px"
	 viewBox="0 0 723 128" style="enable-background:new 0 0 723 128;" xml:space="preserve">
<style type="text/css">
	.st0{fill:url(#SVGID_1_);}
	.st1{fill:url(#SVGID_00000064354162319728190620000016799216857779456149_);}
</style>
<g>
	
		<linearGradient id="SVGID_1_" gradientUnits="userSpaceOnUse" x1="0" y1="56.5479" x2="222.2658" y2="56.5479" gradientTransform="matrix(1 0 0 -1 0 128)">
		<stop  offset="0" style="stop-color:#37388D"/>
		<stop  offset="1" style="stop-color:#BC2585"/>
	</linearGradient>
	<polygon class="st0" points="112.2,96.4 112.2,128 224.4,64 140.3,14.9 112.2,30.7 112.2,64 140.3,79.8 	"/>
	
		<linearGradient id="SVGID_00000088811743480941228720000009919488891942511520_" gradientUnits="userSpaceOnUse" x1="0" y1="64.4384" x2="222.2658" y2="64.4384" gradientTransform="matrix(1 0 0 -1 0 128)">
		<stop  offset="0" style="stop-color:#37388D"/>
		<stop  offset="1" style="stop-color:#BC2585"/>
	</linearGradient>
	<polygon style="fill:url(#SVGID_00000088811743480941228720000009919488891942511520_);" points="84.2,112.2 84.2,79.8 112.2,64 
		84.2,47.3 84.2,14.9 0,64 	"/>
</g>
<g>
	<path d="M252.5,31.6H263v63.1h-10.5V31.6z"/>
	<path d="M280.5,31.6h10.5v52.6h28.1v10.5h-38.6V31.6z"/>
	<path d="M327.9,31.6h10.5v52.6h28.1v10.5h-38.6V31.6z"/>
	<path d="M441.9,31.6h11L474.3,61l20.3-29.5H505v63.1h-10.5V49.2l-20.2,28h-1.7l-20.3-27.7v45.2h-10.5V31.6z"/>
	<path d="M520.8,31.6h36.8v10.5h-26.3v15.8h22.8v10.5h-22.8v15.8h26.3v10.5h-36.8V31.6z"/>
	<path d="M562.8,31.6h52.6v10.5h-21v52.6h-10.5V42.1h-21V31.6z"/>
	<path d="M701.4,68.4v26.3h-10.5V68.4l-21.1-36.8h12L696.6,58l14.6-26.4h11.4L701.4,68.4z"/>
	<path d="M415.6,31.6V71c0,8.2-6.7,14.9-14.9,14.9s-14.9-6.7-14.9-14.9V31.6h-10.5V71c0,14,11.4,25.4,25.4,25.4S426.1,85,426.1,71
		V31.6H415.6z"/>
	<path d="M654.8,69c5.9-3.5,9.7-9.9,9.7-17.3c0-11.1-9-20.2-20.2-20.2h-21.9v63.1H633V71.9h11.4l13.2,22.8h12.1L654.8,69z
		 M644.4,61.4H633V42.1c0,0,9.3,0,11.4,0c5.3,0,9.6,4.3,9.6,9.6S649.7,61.4,644.4,61.4z"/>
</g>
</svg>
