<?xml version="1.0" encoding="utf-8"?>
<!-- Generator: Adobe Illustrator 26.0.3, SVG Export Plug-In . SVG Version: 6.00 Build 0)  -->
<svg version="1.1" id="Layer_1" xmlns="http://www.w3.org/2000/svg" xmlns:xlink="http://www.w3.org/1999/xlink" x="0px" y="0px"
	 viewBox="0 0 824.3 129" style="enable-background:new 0 0 824.3 129;" xml:space="preserve">
<style type="text/css">
	.st0{fill:url(#SVGID_1_);}
	.st1{fill:url(#SVGID_00000038383429906465719260000015095107785342102430_);}
</style>
<g>
	<linearGradient id="SVGID_1_" gradientUnits="userSpaceOnUse" x1="0" y1="64.5" x2="253.5219" y2="64.5">
		<stop  offset="0" style="stop-color:#37388D"/>
		<stop  offset="1" style="stop-color:#BC2585"/>
	</linearGradient>
	<polygon class="st0" points="128,93 128,129 256,56 160,0 128,18 128,56 160,74 	"/>
	
		<linearGradient id="SVGID_00000148663604846898658170000010234894352291462326_" gradientUnits="userSpaceOnUse" x1="0" y1="55.5" x2="253.5219" y2="55.5">
		<stop  offset="0" style="stop-color:#37388D"/>
		<stop  offset="1" style="stop-color:#BC2585"/>
	</linearGradient>
	<polygon style="fill:url(#SVGID_00000148663604846898658170000010234894352291462326_);" points="96,111 96,74 128,56 96,37 96,0 
		0,56 	"/>
</g>
<g>
	<path d="M288,19h12v72h-12V19z"/>
	<path d="M320,19h12v60h32v12h-44V19z"/>
	<path d="M374,19h12v60h32v12h-44V19z"/>
	<path d="M504,19h12.6L541,52.6L564.2,19H576v72h-12V39.1L541,71h-1.9L516,39.4V91h-12V19z"/>
	<path d="M594,19h42v12h-30v18h26v12h-26v18h30v12h-42V19z"/>
	<path d="M642,19h60v12h-24v60h-12V31h-24V19z"/>
	<path d="M800,61v30h-12V61l-24.1-42h13.7l17,30.1L811.3,19h13L800,61z"/>
	<path d="M474,19v45c0,9.4-7.6,17-17,17c-9.4,0-17-7.6-17-17V19h-12v45c0,16,13,29,29,29c16,0,29-13,29-29V19H474z"/>
	<path d="M746.9,61.7c6.7-4,11.1-11.3,11.1-19.7c0-12.7-10.3-23-23-23h-25v72h12V65h13l15,26h13.8L746.9,61.7z M735,53h-13V31
		c0,0,10.6,0,13,0c6.1,0,11,4.9,11,11S741.1,53,735,53z"/>
</g>
</svg>
